<svg width="211" height="78" viewBox="0 0 211 78" fill="none" xmlns="http://www.w3.org/2000/svg">
<path d="M57.2888 52.555V35.2865C57.2888 29.0573 52.1867 24.0009 45.9011 24.0009H35.5378C29.2522 23.9221 24.0805 28.8996 24.0009 35.1387C23.9214 41.3679 28.9439 46.4933 35.2395 46.5721C35.3389 46.5721 35.4384 46.5721 35.5378 46.5721H46.7564C46.7564 46.5721 47.6615 46.6214 48.2184 46.8284C48.7456 47.0157 49.3324 47.4789 49.3324 47.4789L56.2644 53.1365C56.2644 53.1365 56.891 53.6786 57.1198 53.5603C57.3485 53.442 57.2888 52.555 57.2888 52.555ZM35.866 37.5929C35.866 38.342 35.2096 38.9531 34.3841 38.9531C33.5586 38.9531 32.9022 38.342 32.9022 37.5929V32.7436C32.9022 31.9945 33.5686 31.3834 34.3841 31.3834C35.1997 31.3834 35.866 31.9945 35.866 32.7436V37.5929ZM42.2014 39.8796C42.2014 40.6287 41.545 41.2398 40.7195 41.2398C39.894 41.2398 39.2376 40.6287 39.2376 39.8796V30.4569C39.2376 29.7078 39.9039 29.0967 40.7195 29.0967C41.535 29.0967 42.2014 29.7078 42.2014 30.4569V39.8796ZM48.5467 37.5929C48.5467 38.342 47.8803 38.9531 47.0648 38.9531C46.2492 38.9531 45.5829 38.342 45.5829 37.5929V32.7436C45.5829 31.9945 46.2492 31.3834 47.0648 31.3834C47.8803 31.3834 48.5467 31.9945 48.5467 32.7436V37.5929Z" fill="white"/>
<path d="M63.7635 42.7772C63.5646 42.9743 63.2961 43.0729 63.0176 43.0729C62.4507 43.0729 61.9833 42.6195 61.9833 42.0576V31.0283C61.9833 30.4665 62.4408 30.0032 63.0077 30.0032H63.0176C63.2961 30.0032 63.5646 30.1018 63.7635 30.2989C63.9625 30.4862 64.0818 30.7523 64.0719 31.0283V37.4941L67.9307 33.66C68.1197 33.4628 68.3882 33.3544 68.6667 33.3643C68.9452 33.3643 69.2137 33.4628 69.4126 33.66C69.6115 33.8472 69.7309 34.1134 69.7209 34.3893C69.7209 34.6653 69.6115 34.9315 69.4027 35.1187L66.5781 37.9179L69.4822 41.3677C69.7508 41.6732 69.8005 42.1266 69.5916 42.4815C69.3927 42.8757 69.1043 43.0729 68.7264 43.0729C68.3484 43.0729 68.06 42.9447 67.881 42.6983L65.1161 39.3767L64.0818 40.4018V42.0478C64.0818 42.3238 63.9625 42.5899 63.7635 42.7772Z" fill="white"/>
<path d="M76.6429 43.132C75.4196 43.1517 74.246 42.6491 73.4205 41.7521C71.6601 39.8893 71.6601 36.9915 73.4304 35.1286C74.3156 34.2021 75.3798 33.7389 76.623 33.7389C77.8662 33.7389 78.9204 34.212 79.7956 35.1484C80.6509 36.0551 81.1283 37.2576 81.1084 38.4995C81.1084 39.7907 80.6708 40.8651 79.7856 41.7127C79.0099 42.6392 77.8562 43.1616 76.6429 43.132ZM74.8328 36.479C74.3753 37.0014 74.1565 37.6519 74.1565 38.4207C74.1366 39.1402 74.3753 39.84 74.8328 40.4018C75.8273 41.3185 77.3788 41.3185 78.3734 40.4018C78.8607 39.8597 79.1292 39.1501 79.1094 38.4207C79.1094 37.6519 78.8607 37.0014 78.3734 36.479C77.8363 36.0059 77.2396 35.7693 76.6031 35.7693C75.9666 35.7693 75.3798 36.0059 74.8328 36.479Z" fill="white"/>
<path d="M85.3155 43.0733L85.1265 43.0536C84.8978 42.9945 84.6988 42.8762 84.5397 42.6988C84.3905 42.5312 84.311 42.3045 84.311 42.0877V34.7446C84.301 34.4785 84.4104 34.2124 84.5994 34.0251C84.7884 33.8378 85.037 33.7294 85.3055 33.7393C85.7431 33.7393 86.0515 33.9265 86.2106 34.3011C86.8173 33.9364 87.5135 33.7393 88.2296 33.7393C89.433 33.7393 90.4176 34.1729 91.1834 35.0305C91.9293 34.1729 92.8742 33.7393 94.0279 33.7393C95.1816 33.7393 96.1463 34.1237 96.9121 34.8925C97.658 35.6218 98.0758 36.6272 98.0559 37.6621V42.0877C98.0559 42.6298 97.6083 43.0733 97.0613 43.0733C96.7928 43.0733 96.5342 42.9747 96.3452 42.7875C96.1463 42.6101 96.0468 42.3538 96.0468 42.0877V37.6621C96.0568 37.1496 95.8479 36.6568 95.4799 36.3019C95.1318 35.9372 94.6445 35.7401 94.1373 35.7401C93.6301 35.7303 93.1427 35.9274 92.7946 36.2822C92.4167 36.6272 92.1979 37.1003 92.178 37.603V42.0877C92.178 42.6298 91.7304 43.0733 91.1834 43.0733C90.9149 43.0733 90.6563 42.9649 90.4673 42.7776C90.2684 42.6002 90.159 42.3538 90.159 42.0877V37.603C90.1292 36.5681 89.2738 35.7401 88.2296 35.7401C87.7223 35.7303 87.235 35.9372 86.8869 36.3019C86.5189 36.6568 86.3101 37.1496 86.32 37.6621V42.0877L86.3001 42.2158V42.2749L86.2404 42.3834V42.4819C86.0515 42.8762 85.7431 43.0733 85.3155 43.0733Z" fill="white"/>
<path d="M103.238 43.0733L103.049 43.0536C102.82 42.9944 102.621 42.8762 102.462 42.6987C102.313 42.5312 102.233 42.3045 102.233 42.0876V34.7446C102.223 34.4785 102.332 34.2124 102.521 34.0251C102.71 33.8378 102.959 33.7294 103.228 33.7393C103.665 33.7393 103.973 33.9265 104.133 34.3011C104.739 33.9364 105.436 33.7393 106.152 33.7393C107.355 33.7393 108.34 34.1729 109.115 35.0304C109.861 34.1729 110.806 33.7393 111.96 33.7393C113.114 33.7393 114.078 34.1237 114.844 34.8925C115.59 35.6218 116.008 36.6272 115.988 37.6621V42.0876C115.988 42.6297 115.54 43.0733 114.993 43.0733C114.725 43.0733 114.466 42.9747 114.277 42.7874C114.078 42.61 113.979 42.3538 113.979 42.0876V37.6621C113.989 37.1496 113.78 36.6568 113.412 36.3019C113.064 35.9372 112.577 35.7401 112.069 35.7401C111.562 35.7303 111.075 35.9274 110.727 36.2822C110.359 36.6272 110.13 37.1003 110.12 37.603V42.0876C110.12 42.3538 110.02 42.6002 109.831 42.7874C109.652 42.9747 109.394 43.0831 109.135 43.0733C108.867 43.0733 108.608 42.9649 108.419 42.7776C108.22 42.6002 108.111 42.3538 108.111 42.0876V37.603C108.081 36.568 107.226 35.7401 106.181 35.7401C105.674 35.7303 105.187 35.9372 104.839 36.3019C104.471 36.6568 104.262 37.1496 104.272 37.6621V42.0876L104.252 42.2158V42.2749L104.192 42.3833V42.4819C103.973 42.8762 103.665 43.0733 103.238 43.0733Z" fill="white"/>
<path d="M127.863 39.1896C127.863 40.2443 127.475 41.1609 126.689 41.9297C125.953 42.669 124.949 43.0829 123.904 43.0731C121.736 43.0632 119.986 41.3285 119.976 39.1896V34.7247C119.976 34.4684 120.085 34.2121 120.264 34.0347C120.642 33.6503 121.259 33.6306 121.647 34.0052C121.657 34.015 121.667 34.0249 121.677 34.0347C121.866 34.2121 121.965 34.4684 121.965 34.7247V39.1896C121.955 40.2246 122.79 41.0821 123.835 41.0919C123.855 41.0919 123.865 41.0919 123.884 41.0919C124.402 41.1018 124.899 40.9047 125.267 40.54C125.645 40.1851 125.864 39.7022 125.864 39.1896V34.7247C125.864 34.4684 125.963 34.222 126.142 34.0347C126.321 33.8475 126.57 33.739 126.828 33.739C127.097 33.739 127.355 33.8475 127.544 34.0347C127.743 34.2121 127.853 34.4586 127.853 34.7247L127.863 39.1896Z" fill="white"/>
<path d="M133.74 42.0875C133.74 42.3536 133.621 42.6099 133.422 42.7873C133.223 42.9746 132.965 43.0731 132.696 43.0731C132.149 43.0731 131.712 42.6296 131.712 42.0875V34.7247C131.722 34.1727 132.169 33.7292 132.726 33.7391C133.114 33.7391 133.462 33.9657 133.631 34.3206C134.228 33.9362 134.924 33.7391 135.63 33.7391C137.798 33.7391 139.559 35.4738 139.569 37.6225V42.0875C139.569 42.3536 139.469 42.6 139.29 42.7873C139.111 42.9746 138.862 43.083 138.604 43.0731C138.335 43.0731 138.087 42.9746 137.898 42.7873C137.699 42.6099 137.599 42.3536 137.599 42.0875V37.6225C137.609 37.1198 137.4 36.6369 137.023 36.2919C136.655 35.9272 136.157 35.7301 135.65 35.7399C135.143 35.7301 134.655 35.9272 134.297 36.2919C133.939 36.6467 133.74 37.1297 133.75 37.6225L133.74 42.0875Z" fill="white"/>
<path d="M145.317 31.0087V31.403C145.327 31.679 145.218 31.9353 145.029 32.1324C144.84 32.3295 144.581 32.4379 144.313 32.4281C143.746 32.4281 143.288 31.9648 143.288 31.403V31.0087C143.288 30.7426 143.388 30.4864 143.587 30.2991C143.776 30.102 144.044 30.0034 144.313 30.0034C144.86 29.9935 145.317 30.4272 145.317 30.9792C145.307 30.989 145.307 30.9989 145.317 31.0087ZM143.567 34.0445C143.974 33.6601 144.611 33.6601 145.019 34.0445C145.218 34.2417 145.317 34.5078 145.307 34.7838V42.0677C145.307 42.6196 144.86 43.073 144.303 43.073C144.034 43.073 143.766 42.9646 143.577 42.7773C143.378 42.59 143.278 42.3338 143.278 42.0677V34.7838C143.268 34.5078 143.378 34.2417 143.567 34.0445Z" fill="white"/>
<path d="M149.305 41.703C148.361 40.7864 147.893 39.6923 147.893 38.411C147.893 37.1296 148.361 36.0356 149.305 35.1288C150.2 34.2417 151.414 33.7489 152.677 33.7489C153.761 33.7489 154.815 34.1136 155.671 34.7739C155.879 34.9316 156.019 35.1781 156.048 35.4343C156.088 35.7004 156.019 35.9666 155.85 36.1736C155.69 36.3805 155.452 36.5185 155.193 36.5481C154.935 36.5875 154.666 36.5087 154.467 36.3411C153.92 35.9469 153.264 35.7399 152.587 35.7399C151.891 35.7399 151.265 36.006 150.718 36.5382C150.161 37.0705 149.892 37.7013 149.892 38.4208C149.892 39.1305 150.191 39.8106 150.708 40.2935C151.255 40.8258 151.881 41.0919 152.587 41.0919C153.264 41.1018 153.93 40.8948 154.477 40.4907C154.676 40.333 154.935 40.264 155.193 40.3034C155.462 40.333 155.7 40.471 155.859 40.6779C156.029 40.8751 156.098 41.1412 156.058 41.3975C156.019 41.6636 155.889 41.91 155.68 42.0776C154.756 42.7379 153.751 43.0632 152.687 43.0632C151.424 43.0928 150.2 42.5999 149.305 41.703Z" fill="white"/>
<path d="M159.609 41.7127C158.744 40.8059 158.316 39.702 158.316 38.4207C158.316 37.1295 158.744 36.0256 159.609 35.1188C160.424 34.2219 161.588 33.7192 162.801 33.7487C163.706 33.7487 164.582 34.0444 165.308 34.5668C165.367 34.3401 165.487 34.1331 165.666 33.9754C165.845 33.8177 166.073 33.7389 166.312 33.7389C166.571 33.7389 166.819 33.8473 166.988 34.0346C167.177 34.2219 167.287 34.4781 167.277 34.7442V42.0872C167.277 42.3534 167.177 42.5998 166.988 42.7871C166.809 42.9743 166.571 43.0729 166.312 43.0729C166.073 43.0827 165.845 43.0039 165.666 42.8462C165.487 42.6983 165.367 42.4914 165.308 42.2647C164.582 42.7871 163.696 43.0729 162.801 43.063C161.588 43.0926 160.424 42.5998 159.609 41.7127ZM160.335 38.4207C160.335 39.1698 160.564 39.8104 161.021 40.3131C161.469 40.8158 162.115 41.1016 162.791 41.0819C163.468 41.1016 164.124 40.8158 164.582 40.3131C165.049 39.8006 165.308 39.1205 165.288 38.4305C165.308 37.7307 165.049 37.0506 164.572 36.5282C164.124 36.0157 163.478 35.7299 162.791 35.7397C162.115 35.72 161.469 36.0059 161.031 36.5184C160.564 37.0309 160.335 37.6617 160.335 38.4207Z" fill="white"/>
<path d="M174.159 33.7388C174.438 33.729 174.706 33.8374 174.905 34.0345C175.104 34.2218 175.224 34.4781 175.214 34.754C175.204 35.3257 174.736 35.789 174.159 35.789H173.692V41.003C173.97 41.003 174.239 41.1114 174.428 41.3086C174.627 41.5057 174.736 41.7718 174.726 42.0478C174.726 42.6096 174.269 43.0729 173.702 43.0729H173.692C172.538 43.0729 171.603 42.1464 171.603 41.003V35.789H171.056C170.479 35.8087 170.002 35.3651 169.992 34.7935C169.982 34.2218 170.42 33.7487 170.997 33.7388C171.017 33.7388 171.036 33.7388 171.056 33.7388H171.603V31.0283C171.603 30.7523 171.713 30.4862 171.912 30.2989C172.111 30.1018 172.379 30.0032 172.658 30.0032C173.224 30.0032 173.692 30.4566 173.692 31.0185V33.7388H174.159Z" fill="white"/>
<path d="M186.999 38.1644C187.009 38.4108 186.91 38.6572 186.721 38.8248C186.522 39.0022 186.263 39.0909 185.995 39.0811H179.998C180.107 39.6133 180.326 40.0273 180.634 40.3131C181.032 40.7764 181.629 41.0523 182.395 41.141C183.16 41.2298 183.837 41.0819 184.404 40.6877C184.602 40.4905 184.871 40.3821 185.159 40.392C185.478 40.392 185.696 40.4708 185.816 40.6384C186.164 41.0228 186.164 41.4269 185.816 41.8507C184.911 42.6688 183.807 43.0828 182.494 43.0729C181.181 43.063 180.077 42.6097 179.192 41.693C177.392 39.8597 177.392 36.9422 179.192 35.1089C180.077 34.1923 181.151 33.7389 182.404 33.7389C183.658 33.7389 184.722 34.143 185.577 34.9611C186.442 35.7792 186.91 36.8141 186.979 38.0757L186.999 38.1644ZM182.454 35.513C181.728 35.5525 181.141 35.7792 180.704 36.1833C180.266 36.5972 179.998 37.0309 179.908 37.4942H185.239C185.13 37.0605 184.821 36.6367 184.324 36.2227C183.827 35.8087 183.21 35.5722 182.454 35.513Z" fill="white"/>
</svg>
